<?xml version="1.0" encoding="UTF-8"?>
<svg width="130" height="130" version="1.1" viewBox="0 0 130 130" xml:space="preserve" xmlns="http://www.w3.org/2000/svg"><path d="m129.92 32.112c-0.0359-0.09106-0.0839-0.17554-0.14466-0.25244-0.0132-0.01685-0.0231-0.03467-0.0375-0.05054-0.0632-0.07031-0.13428-0.13428-0.2171-0.18506-0.0175-0.01074-0.0374-0.01538-0.0554-0.0249-0.0104-0.0056-0.0165-0.01563-0.0272-0.021l-64-31.476c-0.27832-0.13672-0.60449-0.13672-0.88281 0l-64 31.476c-0.01062 0.0054-0.016663 0.01514-0.027039 0.02075-0.018066 0.0098-0.037903 0.0144-0.055481 0.02515-0.082825 0.05078-0.15387 0.11475-0.21716 0.18506-0.014282 0.01587-0.023987 0.03369-0.03717 0.05029-0.060913 0.0769-0.10895 0.16138-0.1449 0.25269-0.00903 0.02295-0.019775 0.0437-0.0271 0.06714-0.029724 0.095214-0.049743 0.19385-0.049743 0.29639v64.749c0 0.37988 0.21533 0.72656 0.55518 0.89551l64 31.775c0.01483 7e-3 0.03186 4e-3 0.04694 0.011 0.12744 0.05589 0.2611 0.09349 0.39788 0.09349s0.27045-0.0376 0.39789-0.0935c0.01508-7e-3 0.03211-4e-3 0.04694-0.011l64-31.775c0.33985-0.16895 0.55518-0.51563 0.55518-0.89551v-64.749c0-0.10254-0.02-0.20117-0.0497-0.29639-7e-3 -0.02344-0.0181-0.04419-0.0271-0.06714zm-64.923-29.998 61.759 30.374-20.241 10.239-62.341-30.372zm-23.095 11.358 62.373 30.388-12.201 6.1721-64.426-29.55zm63.622 31.998v18.455l-12.164 5.9307-0.25629-18.103zm-41.526 81.916-62-30.782v-62.502l62 31.363zm1-63.657-61.759-31.241 22.094-10.866 64.46 29.565zm63 32.875-62 30.782v-61.921l25.12-12.707 0.26459 18.701c0.0049 0.3418 0.18457 0.6582 0.47607 0.83691 0.16016 0.09863 0.3418 0.14844 0.52393 0.14844 0.14941 0 0.29932-0.0332 0.43799-0.10156l14.142-6.8945c0.34375-0.16699 0.56201-0.51562 0.56201-0.89844v-20.092l20.474-10.357z"/><path d="m8.5498 75.035 17.846 8.9932c0.14453 0.07324 0.29834 0.10742 0.44922 0.10742 0.36572 0 0.71826-0.20117 0.89404-0.5498 0.24854-0.49316 0.05029-1.0947-0.44287-1.3428l-17.846-8.9932c-0.49512-0.25098-1.0942-0.04981-1.3433 0.44238-0.24854 0.49316-0.05029 1.0947 0.44287 1.3428z"/><path d="m8.5498 84.028 30.04 15.138c0.14453 0.0732 0.29834 0.10742 0.44922 0.10742 0.36572 0 0.71826-0.20117 0.89404-0.54981 0.24854-0.49316 0.05029-1.0947-0.44287-1.3428l-30.04-15.138c-0.49512-0.25098-1.0942-0.0498-1.3433 0.44238-0.24854 0.49316-0.05029 1.0947 0.44287 1.3428z"/><path d="m7.855 93.026 30.04 15.138c0.14453 0.0732 0.29834 0.10742 0.44922 0.10742 0.36572 0 0.71826-0.20117 0.89404-0.5498 0.24854-0.49316 0.05029-1.0947-0.44287-1.3428l-30.04-15.138c-0.49414-0.25098-1.0947-0.04981-1.3433 0.44238-0.24854 0.49316-0.05029 1.0947 0.44287 1.3428z"/></svg>
