<?xml version="1.0" encoding="UTF-8"?>
<svg width="91.104" height="75.4" enable-background="new 0 0 100 100" version="1.1" viewBox="0 0 91.104 75.4" xml:space="preserve" xmlns="http://www.w3.org/2000/svg"><g transform="translate(-3.7959 -13.5)"><path d="m94.9 28.8c0-8.4-5.4-15.3-12-15.3h-60.1c-6.6 0-12 6.8-12 15.3 0 7.5 4.3 13.7 9.9 15l-16.8 43c-0.2 0.5-0.1 1 0.2 1.4s0.7 0.7 1.2 0.7h64.8c0.6 0 1.1-0.4 1.4-0.9l21.3-50.4c1.3-2.6 2.1-5.6 2.1-8.8zm-3 0c0 2.7-0.7 5.2-1.8 7.3-0.1 0.1-0.1 0.2-0.2 0.3-1.7 2.9-4.2 4.7-7.1 4.7-5 0-9-5.5-9-12.3s4-12.3 9-12.3 9.1 5.5 9.1 12.3zm-78.1 0c0-6.8 4-12.3 9-12.3h52.9c-3 2.8-4.9 7.2-4.9 12.3 0 5 1.9 9.5 4.9 12.3h-52.9c-4.9-0.1-9-5.6-9-12.3zm55.3 57h-61.6l16.4-41.8h59c1.5 0 2.9-0.4 4.3-1z"/><path d="m77.3 28.8c0 3.8 2.5 6.9 5.6 6.9s5.6-3.1 5.6-6.9-2.5-6.9-5.6-6.9-5.6 3.1-5.6 6.9zm8.2 0c0 2.1-1.2 3.9-2.6 3.9s-2.6-1.8-2.6-3.9 1.2-3.9 2.6-3.9 2.6 1.8 2.6 3.9z"/><path d="m69.7 50c0.6-0.6 0.6-1.5 0-2.1s-1.5-0.6-2.1 0l-7.2 7.1c-0.6 0.6-0.6 1.5 0 2.1 0.3 0.3 0.7 0.4 1.1 0.4s0.8-0.1 1.1-0.4z"/><path d="m56.8 50.3-7.2 7.2c-0.6 0.5-0.6 1.5 0 2 0.3 0.3 0.7 0.4 1.1 0.4s0.8-0.1 1.1-0.4l7.2-7.2c0.6-0.6 0.6-1.5 0-2.1s-1.6-0.5-2.2 0.1z"/><path d="m69.9 55-7.2 7.2c-0.6 0.6-0.6 1.5 0 2.1 0.3 0.3 0.7 0.4 1.1 0.4s0.8-0.1 1.1-0.4l7.2-7.2c0.6-0.6 0.6-1.5 0-2.1s-1.6-0.5-2.2 0z"/></g></svg>
