<?xml version="1.0" encoding="UTF-8"?>
<svg width="217.11" height="256.53" data-name="Слой 1" version="1.1" viewBox="0 0 217.11 256.53" xmlns="http://www.w3.org/2000/svg">
 <title>8</title>
 <path d="m159.54 16.749c-14.757 0-26.316 6.8634-26.316 15.625s11.559 15.626 26.316 15.626c14.758 0 26.317-6.8638 26.317-15.626s-11.559-15.625-26.317-15.625zm0 26.317c-12.601 0-21.382-5.6348-21.382-10.691 0-5.0562 8.7813-10.691 21.382-10.691 12.601 0 21.382 5.6348 21.382 10.691 0 5.0566-8.7813 10.691-21.382 10.691z"/>
 <path d="m217.11 32.374h-0.0211c-0.4443-18.036-25.128-32.121-56.724-32.363v-6e-3h-0.45581c-0.12286-7.4e-4 -0.24349-5e-3 -0.36672-5e-3 -0.12286 0-0.24349 4e-3 -0.36635 5e-3h-156.71a2.4636 2.4636 0 0 0-2.4672 2.4668v220.4a2.4642 2.4642 0 0 0 2.4672 2.4672h99.582c1.4825 17.621 26.202 31.189 57.496 31.189 32.281 0 57.568-14.437 57.568-32.868 0-0.16554-0.0171-0.32775-0.0211-0.49255h0.0211zm-115.14 0.49255c0 0.11062 0.0122 0.21937 0.0141 0.33h-0.0141v187.21h-97.043v-215.47h123.87c-16.223 5.7518-26.822 16-26.822 27.928zm110.2 175.65v15.711l-0.0267-0.0152c-0.56085 15.147-23.935 27.379-52.607 27.379-27.976 0-50.914-11.645-52.533-26.28l0.0104-0.1893-0.0104-3e-3 -0.0891-14.998-0.0108 0.0126v-163.75c8.873 11.499 28.847 19.342 52.633 19.342s43.761-7.8433 52.634-19.342zm-52.634-147.72c-29.022 0-52.633-12.531-52.633-27.933 0-15.335 23.406-27.818 52.254-27.928h0.7598c28.848 0.1095 52.254 12.593 52.254 27.928 0 15.402-23.611 27.933-52.634 27.933z"/>
</svg>
