<?xml version="1.0" encoding="UTF-8"?>
<svg width="47" height="40.2" version="1.1" viewBox="0 0 47 40.2" xml:space="preserve" xmlns="http://www.w3.org/2000/svg"><style type="text/css">
	.st0{fill:none;stroke:#000000;stroke-linecap:round;stroke-linejoin:round;stroke-miterlimit:10;}
	.st1{fill:#FFFFFF;}
	.st2{fill:#FFFFFF;stroke:#000000;stroke-width:2;stroke-linecap:round;stroke-linejoin:round;stroke-miterlimit:10;}
</style><g transform="translate(-2.5 -5.8999)"><path d="m13.564 46.1h-0.03906l-3.1465-0.01465c-4.3647-0.020506-7.8989-3.584-7.8779-7.9424l0.125-26.14c0.00146-0.27539 0.22461-0.49805 0.5-0.49805 0.25684 0 0.49463 0.19434 0.52002 0.4502 0.24854 2.4951 4.0356 4.542 8.4424 4.5635h0.06787c4.3848 0 8.1582-2.0029 8.4287-4.4824 0.04199-0.38476 0.58887-0.57422 0.8623-0.29785 0.09375 0.09375 0.1582 0.22168 0.15723 0.35449l-0.125 26.14c-0.0098 2.1123-0.84375 4.0938-2.3472 5.5801-1.4932 1.4756-3.4692 2.2871-5.5679 2.2871zm-9.9492-31.832-0.11426 23.879c-0.018066 3.8076 3.0693 6.9199 6.8828 6.9385l3.1465 0.01465h0.03369c1.834 0 3.5605-0.70898 4.8652-1.998 1.3135-1.2988 2.0415-3.0293 2.0503-4.873l0.11426-23.846c-1.5464 1.8857-4.7183 3.1357-8.4321 3.1357h-0.07813c-3.6885-0.01855-6.9155-1.3359-8.4683-3.251z"/><path d="m12.161 17.519h-0.07813c-4.9868-0.024414-9.1299-2.4248-9.4326-5.4639-0.012695-0.12891-0.023926-0.25684-0.023438-0.38477 0.0078125-1.6035 1.0371-3.0869 2.8979-4.1758 1.7783-1.0391 4.1328-1.5703 6.6138-1.5938 5.3237 0.025391 9.4829 2.5986 9.4673 5.8594v2e-3c-9.77e-4 0.12793-0.01367 0.25586-0.02734 0.38184-0.33496 3.0732-4.377 5.375-9.4175 5.375zm-0.10156-10.618c-2.2827 0-4.4214 0.5166-6.0298 1.457-1.5435 0.90332-2.397 2.0811-2.4028 3.3164-4.882e-4 0.09473 0.00977 0.18945 0.018555 0.28223 0.24854 2.4941 4.0356 4.541 8.4424 4.5625h0.06787c4.3848 0 8.1582-2.0029 8.4287-4.4814 0.0098-0.09375 0.02051-0.18848 0.02148-0.2832 0.01074-2.6543-3.7896-4.8311-8.4722-4.8535-0.0249-1e-7 -0.0498-1e-7 -0.07422-1e-7zm9.0464 4.8574h0.0098z"/><path d="m12.135 14.382h-0.03174c-1.0337-0.0049-2.0117-0.26172-2.7539-0.72461-0.81738-0.50879-1.2656-1.208-1.2617-1.9688 0.0039063-0.76172 0.4585-1.457 1.2808-1.958 0.74658-0.45508 1.7544-0.66699 2.7607-0.69727 2.2583 0.010742 4.0225 1.1934 4.0156 2.6934-0.0039 0.76074-0.4585 1.4561-1.2808 1.957-0.73877 0.45117-1.707 0.69824-2.729 0.69824zm-0.03809-4.3486c-0.84082 0-1.624 0.19531-2.208 0.55176-0.29834 0.18164-0.79883 0.56738-0.80127 1.1084-0.00244 0.54004 0.49414 0.93066 0.79053 1.1152 0.58691 0.36621 1.3789 0.56934 2.23 0.57324 0.84766-0.01367 1.645-0.19141 2.2354-0.55176 0.29834-0.18164 0.79883-0.56738 0.80127-1.1074 0.0039-0.9082-1.3789-1.6816-3.0205-1.6895h-0.02734z"/><path d="m39.584 39.055h-18.605c-0.27637 0-0.5-0.22363-0.5-0.5s0.22363-0.5 0.5-0.5h18.398l9.123-9.123v-22.032l-36.364 9.766e-4c-0.27637 0-0.5-0.22363-0.5-0.5s0.22363-0.5 0.5-0.5l36.864-9.766e-4c0.13281 0 0.25976 0.052734 0.35352 0.14648 0.09375 0.09375 0.14648 0.2207 0.14648 0.35352v22.739c0 0.13281-0.05274 0.25977-0.14648 0.35352l-9.416 9.416c-0.09375 0.09375-0.2207 0.14648-0.35352 0.14648z"/><path d="m39.202 39.055c-0.27637 0-0.5-0.22363-0.5-0.5v-9.416c0-0.27637 0.22363-0.5 0.5-0.5h9.7979c0.27637 0 0.5 0.22363 0.5 0.5s-0.22363 0.5-0.5 0.5h-9.2979v8.916c0 0.27637-0.22363 0.5-0.5 0.5z"/></g></svg>
