<?xml version="1.0" encoding="UTF-8"?>
<svg width="240" height="190" data-name="Слой 1" version="1.1" viewBox="0 0 240 190" xmlns="http://www.w3.org/2000/svg">
 <title>8</title>
 <path d="m143.54 12.219c-10.979 0-19.579 5.1064-19.579 11.625s8.5999 11.626 19.579 11.626c10.98 0 19.58-5.1067 19.58-11.626s-8.5999-11.625-19.58-11.625zm0 19.58c-9.3752 0-15.908-4.1923-15.908-7.9541s6.5333-7.9541 15.908-7.9541c9.3751 0 15.908 4.1923 15.908 7.9541 0 3.7621-6.5333 7.9541-15.908 7.9541z" stroke-width=".744"/>
 <path d="m186.41 25.306h-0.0156c-0.32752-13.296-18.524-23.68-41.817-23.858v-0.00442h-0.33601c-0.0906-5.455e-4 -0.17951-0.00369-0.27035-0.00369-0.0906 0-0.1795 0.00295-0.27007 0.00369h-115.53a1.8162 1.8162 0 0 0-1.8188 1.8185v162.48a1.8166 1.8166 0 0 0 1.8188 1.8188h73.412c1.0929 12.99 19.316 22.993 42.386 22.993 23.798 0 42.439-10.643 42.439-24.23 0-0.12203-0.0126-0.24162-0.0156-0.36311h0.0156zm-84.881 0.36311c0 0.08156 0.01 0.16172 0.0104 0.24328h-0.0104v138.01h-71.54v-158.84h91.317c-11.96 4.2402-19.773 11.795-19.773 20.589zm81.239 129.49v11.582l-0.0197-0.0112c-0.41347 11.166-17.645 20.184-38.782 20.184-20.624 0-37.534-8.5847-38.727-19.374l8e-3 -0.13955-8e-3 -2e-3 -0.0657-11.057-9e-3 0.01v-120.72c6.5412 8.4771 21.266 14.259 38.801 14.259s32.261-5.7821 38.802-14.259zm-38.802-108.9c-21.395 0-38.801-9.2379-38.801-20.592 0-11.305 17.255-20.507 38.522-20.589h0.56012c21.267 0.080723 38.522 9.2836 38.522 20.589 0 11.354-17.406 20.592-38.802 20.592z" stroke-width=".7372"/>
</svg>
