<?xml version="1.0" encoding="UTF-8"?>
<svg width="89.999" height="57.689" enable-background="new 0 0 100 100" version="1.1" viewBox="0 0 89.999 57.689" xml:space="preserve" xmlns="http://www.w3.org/2000/svg"><path d="m42.113 40.832c-2.412 0-4.552 2.1-4.77 4.684-0.113 1.34 0.309 2.637 1.158 3.561 0.782 0.85 1.848 1.318 3.002 1.318 2.413 0 4.552-2.102 4.77-4.682 0.114-1.34-0.309-2.637-1.158-3.562-0.78-0.85-1.846-1.319-3.002-1.319zm-0.609 7.211c-0.627 0-1.038-0.303-1.272-0.557-0.406-0.441-0.605-1.088-0.547-1.773 0.116-1.373 1.228-2.531 2.428-2.531 0.627 0 1.039 0.305 1.273 0.561 0.405 0.441 0.604 1.086 0.547 1.771-0.116 1.371-1.228 2.529-2.429 2.529zm19.597-7.211c-2.411 0-4.551 2.1-4.769 4.682-0.113 1.34 0.309 2.639 1.158 3.561 0.78 0.852 1.847 1.32 3.002 1.32 2.412 0 4.552-2.102 4.77-4.682 0.114-1.34-0.309-2.639-1.157-3.562-0.783-0.85-1.849-1.319-3.004-1.319zm-0.609 7.211c-0.627 0-1.038-0.303-1.272-0.557-0.405-0.441-0.604-1.088-0.547-1.773 0.116-1.373 1.229-2.531 2.428-2.531 0.627 0 1.039 0.305 1.273 0.561 0.405 0.439 0.604 1.086 0.547 1.771-0.116 1.371-1.228 2.529-2.429 2.529zm20.275-8.34c-2.413 0-4.553 2.102-4.771 4.684-0.112 1.34 0.311 2.639 1.159 3.562 0.781 0.85 1.848 1.316 3.002 1.316 2.412 0 4.551-2.1 4.769-4.682 0.114-1.34-0.309-2.637-1.158-3.561-0.782-0.85-1.847-1.319-3.001-1.319zm-0.61 7.213c-0.627 0-1.038-0.303-1.272-0.559-0.405-0.441-0.604-1.088-0.548-1.773 0.116-1.371 1.229-2.529 2.43-2.529 0.626 0 1.036 0.303 1.271 0.559 0.406 0.441 0.605 1.088 0.548 1.773-0.117 1.371-1.229 2.529-2.429 2.529zm7.229-10.318c-0.432-0.469-0.904-0.885-1.41-1.246l-5.278-4.574c0.312-0.914 0.528-1.871 0.612-2.864 0.255-3.019-0.684-5.93-2.572-7.985-0.586-0.637-1.248-1.167-1.962-1.6l-19.938-15.86-1e-3 -1e-3c-6e-3 -5e-3 -0.012-9e-3 -0.018-0.014l-0.501-0.398c-0.018-0.014-0.039-0.017-0.057-0.028-1.812-1.342-3.643-2.028-5.449-2.028h-2e-3c-3.708 0-7.174 2.077-9.059 5.301-1.462-1.189-4.155-3.012-6.942-3.012-5.902 0-10.703 4.612-10.703 10.282 0 1.597 0.342 3.102 0.997 4.482h-0.021c-5.177 0-9.949 4.765-10.421 10.405-0.122 1.463-0.016 2.762 0.306 3.928-1.292 0.633-3.124 0.727-4.906 0.812-0.89 0.043-1.73 0.082-2.524 0.189-0.492 0.064-1.134 0.1-1.812 0.139-1.831 0.102-3.905 0.215-5.174 1.012-0.323 0.203-0.528 0.549-0.549 0.93-0.021 0.383 0.145 0.75 0.444 0.986 0.913 0.721 1.892 1.342 2.838 1.941 1.693 1.072 3.292 2.086 4.401 3.568 0.981 1.311 2.531 2.227 4.029 3.111 1.447 0.855 2.943 1.738 3.571 2.828 0.34 0.59 0.617 1.234 0.911 1.918 0.649 1.512 1.321 3.074 2.764 4.234 0.293 0.236 0.568 0.436 0.831 0.627 0.602 0.436 1.037 0.752 1.451 1.346 0.178 0.256 0.33 0.512 0.478 0.76 0.292 0.486 0.594 0.99 1.036 1.463 0.207 0.219 0.49 0.352 0.792 0.369 0.848 0.047 1.723 0.07 2.633 0.07 1.968 0 4.098-0.111 6.443-0.332 0.866-0.082 1.745-0.105 2.675-0.133 0.986-0.027 2.006-0.055 3.007-0.158 0.703-0.07 1.321-0.244 1.92-0.412 0.453-0.127 0.889-0.246 1.323-0.309 3.974-0.236 7.54-3.006 9.216-6.84l1.709 2.545c0.01 0.016 0.024 0.027 0.035 0.041 0.311 0.5 0.655 0.977 1.052 1.408 1.705 1.854 4.03 2.875 6.55 2.875 4.316 0 8.241-3.033 9.917-7.234l1.404 1.533c0.35 0.611 0.764 1.184 1.238 1.699 1.704 1.855 4.031 2.877 6.549 2.877 5.425 0 10.242-4.785 10.739-10.666 0.255-3.018-0.683-5.93-2.572-7.985zm-6.86-2.859c-0.479 0.018-0.953 0.068-1.42 0.156 0.204-0.287 0.396-0.582 0.575-0.887zm-9.979 8.291c-0.333-1.328-0.909-2.562-1.71-3.621 0.563 0.111 1.143 0.172 1.733 0.172 0.585 0 1.162-0.066 1.729-0.174-0.769 1.082-1.366 2.308-1.752 3.623zm-13.68-20.296 0.979 0.863c0.016 0.017 0.034 0.031 0.05 0.049 1.446 1.572 2.161 3.833 1.962 6.2-0.395 4.695-4.162 8.512-8.398 8.512-1.853 0-3.563-0.752-4.818-2.115-1.445-1.572-2.159-3.832-1.959-6.199 0.396-4.694 4.163-8.513 8.397-8.513 1.386 0 2.691 0.42 3.787 1.203zm-5.282 20.969c-0.199-1.08-0.557-2.105-1.06-3.043 0.308 0.033 0.62 0.049 0.935 0.049 0.587 0 1.163-0.066 1.729-0.174-0.678 0.957-1.219 2.026-1.604 3.168zm9.798-10.238 1.93 2.359c0.048 0.066 0.1 0.131 0.149 0.197-0.564-0.111-1.143-0.172-1.734-0.172-0.585 0-1.161 0.066-1.729 0.174 0.558-0.784 1.021-1.644 1.384-2.558zm17.585-4.749c-0.396 4.694-4.163 8.513-8.397 8.513-1.826 0-3.511-0.73-4.76-2.057-5e-3 -6e-3 -5e-3 -0.014-0.01-0.02l-0.614-0.752c-1.061-1.506-1.566-3.455-1.396-5.487 0.396-4.693 4.162-8.512 8.396-8.512 1.154 0 2.254 0.293 3.224 0.844l1.573 1.251c7e-3 8e-3 0.014 0.015 0.021 0.022 1.448 1.573 2.163 3.833 1.963 6.198zm-28.157-25.367c1.442 0 2.968 0.651 4.537 1.936 1e-3 1e-3 2e-3 1e-3 3e-3 2e-3l16.098 12.807c-4.378 0.351-8.231 3.772-9.551 8.27-0.408-1.625-1.173-3.113-2.271-4.308-0.061-0.065-0.126-0.121-0.188-0.185-3e-3 -3e-3 -4e-3 -7e-3 -7e-3 -0.01l-0.023-0.021c-0.319-0.324-0.655-0.622-1.011-0.89l-14.822-13.046c1.405-2.748 4.209-4.555 7.235-4.555zm-16.001 2.289c2.88 0 5.98 2.913 6.324 3.245 7e-3 7e-3 0.017 9e-3 0.024 0.015 7e-3 7e-3 9e-3 0.016 0.016 0.021l11.671 10.275c-5.329 0.136-10.015 4.856-10.504 10.652-0.058 0.684-0.046 1.361 0.015 2.025l-15.126-14.81c-0.509-1.068-0.774-2.24-0.774-3.491 1e-3 -4.374 3.748-7.932 8.354-7.932zm-17.808 23.015c0.368-4.395 4.143-8.251 8.08-8.251 1.526 0 1.772 7e-3 2.923 0.705l15.083 14.769c-0.157-0.01-0.312-0.025-0.469-0.025-5.425 0-10.242 4.785-10.738 10.664-0.048 0.578-0.04 1.148-4e-3 1.713l-13.717-14.554c-0.953-1.269-1.334-2.912-1.158-5.021zm18.231 27.224c-0.928 0.025-1.887 0.053-2.831 0.141-3.091 0.293-5.782 0.387-8.212 0.279-0.153-0.213-0.297-0.455-0.455-0.719-0.175-0.291-0.356-0.592-0.566-0.893-0.641-0.922-1.332-1.422-2-1.906-0.233-0.17-0.478-0.346-0.738-0.555-0.987-0.795-1.517-2.027-2.078-3.332-0.307-0.717-0.625-1.457-1.035-2.164-0.937-1.623-2.703-2.668-4.411-3.676-1.359-0.805-2.643-1.562-3.343-2.498-1.368-1.828-3.227-3.006-5.025-4.145-0.21-0.135-0.419-0.266-0.625-0.398 0.653-0.07 1.342-0.107 1.937-0.141 0.726-0.039 1.412-0.078 1.994-0.156 0.695-0.092 1.488-0.129 2.326-0.17 1.895-0.09 4.016-0.201 5.733-1.006 0.125 0.199 0.255 0.395 0.398 0.584 0.018 0.023 0.041 0.041 0.06 0.062 9e-3 0.01 0.011 0.021 0.021 0.031l17.381 18.439c0.213 0.295 0.44 0.576 0.685 0.844 0.477 0.52 1.007 0.965 1.573 1.35-0.261 0.012-0.519 0.021-0.789 0.029zm14.165-9.361c-0.367 4.352-3.637 7.945-7.489 8.445-0.206 8e-3 -0.408 0.021-0.603 0.047-0.103 4e-3 -0.204 0.018-0.307 0.018-1.854 0-3.565-0.752-4.819-2.117-1.445-1.57-2.159-3.83-1.96-6.195 0.396-4.693 4.163-8.512 8.396-8.512 1.854 0 3.566 0.752 4.82 2.115 1.447 1.572 2.162 3.832 1.962 6.199zm19.11-2e-3c-0.396 4.693-4.164 8.512-8.397 8.512-1.854 0-3.565-0.752-4.819-2.117-1.446-1.57-2.16-3.83-1.961-6.195 0.396-4.695 4.164-8.512 8.397-8.512 1.854 0 3.565 0.75 4.82 2.115 1.446 1.572 2.159 3.832 1.96 6.197zm19.109-1.127c-0.396 4.693-4.164 8.512-8.398 8.512-1.853 0-3.563-0.752-4.818-2.115-1.445-1.572-2.16-3.832-1.961-6.199 0.396-4.693 4.162-8.512 8.396-8.512 1.359 0 2.64 0.408 3.722 1.16l1.072 0.93c9e-3 0.01 0.018 0.018 0.026 0.025 1.446 1.574 2.16 3.832 1.961 6.199zm-35.773-10.662c2.411 0 4.551-2.102 4.769-4.682 0.113-1.34-0.31-2.638-1.158-3.562-0.781-0.851-1.848-1.318-3.003-1.318-2.411 0-4.55 2.101-4.768 4.683-0.114 1.338 0.308 2.637 1.156 3.559 0.782 0.851 1.848 1.32 3.004 1.32zm0.607-7.212c0.628 0 1.039 0.304 1.273 0.559 0.405 0.44 0.604 1.087 0.547 1.774-0.116 1.371-1.229 2.527-2.428 2.527-0.628 0-1.039-0.303-1.273-0.559-0.405-0.439-0.604-1.086-0.546-1.771 0.116-1.372 1.227-2.53 2.427-2.53zm19.234-3.478c-2.412 0-4.552 2.101-4.77 4.681-0.114 1.339 0.308 2.636 1.156 3.56 0.782 0.852 1.85 1.32 3.005 1.32 2.411 0 4.551-2.102 4.769-4.682 0.113-1.339-0.309-2.637-1.157-3.56-0.782-0.85-1.848-1.319-3.003-1.319zm-0.609 7.209c-0.629 0-1.04-0.303-1.274-0.559-0.405-0.441-0.604-1.087-0.546-1.771 0.115-1.371 1.228-2.528 2.429-2.528 0.627 0 1.038 0.304 1.272 0.559 0.405 0.44 0.604 1.086 0.546 1.771-0.115 1.372-1.228 2.528-2.427 2.528z"/></svg>
