<?xml version="1.0" encoding="UTF-8"?>
<svg width="84.439" height="87.374" enable-background="new 0 0 100 100" version="1.1" viewBox="0 0 84.439 87.374" xml:space="preserve" xmlns="http://www.w3.org/2000/svg"><g transform="translate(-7.975 -5.8736)"><path d="m65.061 21.309c0.954 0.264 1.886 0.41 2.626 0.411h9e-3c1.024 0 1.623-0.287 1.78-0.854 0.157-0.568-0.211-1.124-1.095-1.652-0.636-0.38-1.511-0.734-2.464-0.998s-1.886-0.41-2.626-0.411h-8e-3c-1.024 0-1.623 0.287-1.78 0.854-0.408 1.471 2.892 2.466 3.558 2.65zm0.513-1.853c1.13 0.313 1.912 0.695 2.329 0.975-0.5 0.026-1.369-0.049-2.498-0.362-1.13-0.313-1.912-0.695-2.329-0.975 0.503-0.027 1.369 0.049 2.498 0.362z"/><path d="m92.38 31.816c-0.071-0.209-1.818-5.108-9.45-4.68-6.121 0.344-7.723-4.147-7.961-4.961 0.093-0.71-0.3-1.77-2.392-3.074-1.58-0.985-3.78-1.895-6.194-2.563-2.414-0.669-4.771-1.018-6.631-0.988-2.704 0.046-3.506 0.892-3.702 1.595 0 1e-3 0 1e-3 -1e-3 2e-3l-3.104 11.209 0.166-19.051c0.014-1.611-3.036-3.372-9.766-3.43-6.73-0.057-9.81 1.648-9.825 3.259l-0.124 14.201c-0.398 0.024-0.798 0.053-1.203 0.093-6.468 0.64-9.375 2.553-9.424 4.127-0.254 0.699-1.948 4.768-6.577 3.3-6.112-1.939-8.149 2.797-8.168 2.845-0.041 0.098-0.056 0.204-0.046 0.309l5.803 58.659c0.029 0.293 0.254 0.53 0.546 0.573 0.032 5e-3 0.063 7e-3 0.095 7e-3 0.257 0 0.494-0.154 0.594-0.397 0.063-0.152 1.595-3.697 6.59-2.111 4.495 1.427 6.798-1.447 7.722-3.129 1.008 0.787 3.041 1.355 6.177 1.355 0.95 0 2.001-0.052 3.155-0.166 6.697-0.663 9.577-2.69 9.419-4.293l-0.499-5.042c0.421 0.136 0.846 0.263 1.27 0.38 2.315 0.641 4.575 0.99 6.398 0.99 0.078 0 0.156-1e-3 0.233-2e-3 1.414-0.024 2.304-0.268 2.863-0.594 0.269 0.598 0.701 1.373 1.365 2.134 1.244 1.426 3.565 3.079 7.562 2.853 6.619-0.38 8.099 3.639 8.158 3.806 0.088 0.262 0.334 0.438 0.61 0.438h0.018c0.282-8e-3 0.527-0.199 0.602-0.471l15.731-56.805c0.035-0.124 0.031-0.256-0.01-0.378zm-32.607-14.978c0.07-1e-3 0.141-2e-3 0.214-2e-3 1.708 0 3.847 0.332 6.052 0.943 2.298 0.636 4.379 1.494 5.857 2.416 1.611 1.004 1.841 1.667 1.793 1.838-0.186 0.673-3.444 1.181-8.749-0.288s-7.836-3.58-7.651-4.254v-1e-3c0.048-0.17 0.587-0.62 2.484-0.652zm-16.439-9.675c5.505 0.048 8.496 1.433 8.49 2.132-2e-3 0.178-0.405 0.752-2.23 1.273-1.676 0.479-3.916 0.736-6.296 0.71-5.505-0.048-8.496-1.433-8.491-2.131 6e-3 -0.699 3.016-2.046 8.527-1.984zm-8.542 3.726c1.472 0.926 4.251 1.64 8.495 1.677 0.095 1e-3 0.189 1e-3 0.283 1e-3 2.399 0 4.654-0.268 6.377-0.761 0.8-0.228 1.405-0.484 1.862-0.749l-0.193 22.099-6.349 22.928-2.996-30.29v-1e-3c-0.072-0.726-0.717-1.698-3.375-2.204-1.206-0.23-2.653-0.33-4.211-0.303zm-2.472 13.821c2.372-0.234 4.623-0.184 6.334 0.142 1.865 0.356 2.318 0.892 2.336 1.068 0.018 0.177-0.322 0.791-2.081 1.505-1.614 0.655-3.811 1.145-6.184 1.38-5.477 0.541-8.6-0.515-8.67-1.21-0.069-0.694 2.786-2.343 8.265-2.885zm-10.324 64.805c-3.726-1.183-5.938 0.119-7.102 1.324l-5.617-56.777c0.342-0.663 2.058-3.397 6.526-1.979 3.786 1.202 6.016-0.648 7.178-2.266l5.581 56.421c-0.283 0.759-2.008 4.725-6.566 3.277zm24.802-4.879c0.069 0.695-2.786 2.344-8.265 2.886-5.479 0.541-8.601-0.515-8.67-1.21l-5.637-56.984c1.135 0.555 2.943 0.925 5.469 0.925 0.95 0 2.002-0.052 3.156-0.167 2.492-0.246 4.815-0.768 6.541-1.468 0.771-0.313 1.345-0.631 1.77-0.944l3.134 31.677c5e-3 0.046 0.015 0.09 0.028 0.133l-4.023 14.527c-0.494 1.785 2.411 3.668 5.938 4.99zm8.662-5.087c-1.747 0.029-3.968-0.305-6.265-0.941-0.775-0.215-1.484-0.444-2.141-0.679-9e-3 -3e-3 -0.017-7e-3 -0.026-9e-3 -3.822-1.375-5.644-2.992-5.485-3.565l15.281-55.184c1.182 1.275 3.683 2.683 7.772 3.815 2.575 0.713 4.666 1.009 6.279 1.009 0.949 0 1.73-0.103 2.349-0.283l-15.281 55.184c-0.047 0.171-0.585 0.621-2.483 0.653zm20.37 7.626c-1.12-1.48-3.593-3.516-8.631-3.231-6.047 0.344-7.684-4.044-7.953-4.932l15.191-54.861c0.252 0.446 0.581 0.935 1.002 1.418 1.244 1.426 3.569 3.079 7.562 2.853 5.924-0.341 7.735 2.852 8.089 3.639z"/><path d="m28.406 27.165c0.104 1.052 1.782 1.25 3.033 1.25 0.557 0 1.03-0.039 1.241-0.06 0.984-0.097 1.907-0.298 2.598-0.563 0.961-0.369 1.419-0.855 1.36-1.441-0.058-0.587-0.602-0.973-1.617-1.147-0.73-0.126-1.674-0.14-2.658-0.043-0.686 0.068-4.107 0.484-3.957 2.004zm4.085-0.724c1.166-0.116 2.033-0.041 2.524 0.07-0.459 0.205-1.295 0.447-2.461 0.563-1.166 0.115-2.034 0.041-2.524-0.07 0.459-0.204 1.295-0.447 2.461-0.563z"/><path d="m40.664 10.498c0.712 0.203 1.649 0.319 2.638 0.328 0.039 0 0.078 1e-3 0.117 1e-3 0.946 0 1.839-0.1 2.526-0.282 0.995-0.265 1.502-0.698 1.507-1.287s-0.494-1.031-1.485-1.313c-0.712-0.203-1.649-0.319-2.638-0.328-0.694-7e-3 -4.137 0.041-4.15 1.569-5e-3 0.588 0.494 1.03 1.485 1.312zm2.654-1.595c1.172 0.01 2.027 0.177 2.502 0.34-0.478 0.154-1.334 0.307-2.507 0.296-1.172-0.01-2.026-0.178-2.502-0.34 0.478-0.154 1.338-0.302 2.507-0.296z"/></g></svg>
