<?xml version="1.0" encoding="UTF-8" standalone="no"?>
<svg
   xmlns:dc="http://purl.org/dc/elements/1.1/"
   xmlns:cc="http://creativecommons.org/ns#"
   xmlns:rdf="http://www.w3.org/1999/02/22-rdf-syntax-ns#"
   xmlns:svg="http://www.w3.org/2000/svg"
   xmlns="http://www.w3.org/2000/svg"
   xmlns:sodipodi="http://sodipodi.sourceforge.net/DTD/sodipodi-0.dtd"
   xmlns:inkscape="http://www.inkscape.org/namespaces/inkscape"
   version="1.0"
   width="700.000000pt"
   height="700.000000pt"
   viewBox="0 0 700.000000 700.000000"
   preserveAspectRatio="xMidYMid meet"
   id="svg8"
   sodipodi:docname="safari-pinned-tab.svg"
   inkscape:version="0.92.4 (5da689c313, 2019-01-14)">
  <defs
     id="defs12" />
  <sodipodi:namedview
     pagecolor="#ffffff"
     bordercolor="#666666"
     borderopacity="1"
     objecttolerance="10"
     gridtolerance="10"
     guidetolerance="10"
     inkscape:pageopacity="0"
     inkscape:pageshadow="2"
     inkscape:window-width="1366"
     inkscape:window-height="705"
     id="namedview10"
     showgrid="false"
     inkscape:zoom="0.57642857"
     inkscape:cx="466.66667"
     inkscape:cy="466.66667"
     inkscape:window-x="-8"
     inkscape:window-y="-8"
     inkscape:window-maximized="1"
     inkscape:current-layer="svg8" />
  <metadata
     id="metadata2">
Created by potrace 1.11, written by Peter Selinger 2001-2013
<rdf:RDF>
  <cc:Work
     rdf:about="">
    <dc:format>image/svg+xml</dc:format>
    <dc:type
       rdf:resource="http://purl.org/dc/dcmitype/StillImage" />
  </cc:Work>
</rdf:RDF>
</metadata>
  <g
     id="g10"
     transform="matrix(8.2261006,0,0,7.9427338,-62.284691,-43.858587)">
    <path
       d="m 65.061,21.309 c 0.954,0.264 1.886,0.41 2.626,0.411 0.003,0 0.006,0 0.009,0 1.024,0 1.623,-0.287 1.78,-0.854 0.157,-0.568 -0.211,-1.124 -1.095,-1.652 -0.636,-0.38 -1.511,-0.734 -2.464,-0.998 -0.953,-0.264 -1.886,-0.41 -2.626,-0.411 -0.003,0 -0.006,0 -0.008,0 -1.024,0 -1.623,0.287 -1.78,0.854 -0.408,1.471 2.892,2.466 3.558,2.65 z m 0.513,-1.853 c 1.13,0.313 1.912,0.695 2.329,0.975 -0.5,0.026 -1.369,-0.049 -2.498,-0.362 -1.13,-0.313 -1.912,-0.695 -2.329,-0.975 0.503,-0.027 1.369,0.049 2.498,0.362 z"
       id="path2"
       inkscape:connector-curvature="0" />
    <path
       d="m 92.38,31.816 c -0.071,-0.209 -1.818,-5.108 -9.45,-4.68 -6.121,0.344 -7.723,-4.147 -7.961,-4.961 0.093,-0.71 -0.3,-1.77 -2.392,-3.074 -1.58,-0.985 -3.78,-1.895 -6.194,-2.563 -2.414,-0.669 -4.771,-1.018 -6.631,-0.988 -2.704,0.046 -3.506,0.892 -3.702,1.595 0,0.001 0,0.001 -10e-4,0.002 L 52.945,28.356 53.111,9.305 C 53.125,7.694 50.075,5.933 43.345,5.875 36.615,5.818 33.535,7.523 33.52,9.134 l -0.124,14.201 c -0.398,0.024 -0.798,0.053 -1.203,0.093 -6.468,0.64 -9.375,2.553 -9.424,4.127 -0.254,0.699 -1.948,4.768 -6.577,3.3 C 10.08,28.916 8.043,33.652 8.024,33.7 7.983,33.798 7.968,33.904 7.978,34.009 l 5.803,58.659 c 0.029,0.293 0.254,0.53 0.546,0.573 0.032,0.005 0.063,0.007 0.095,0.007 0.257,0 0.494,-0.154 0.594,-0.397 0.063,-0.152 1.595,-3.697 6.59,-2.111 4.495,1.427 6.798,-1.447 7.722,-3.129 1.008,0.787 3.041,1.355 6.177,1.355 0.95,0 2.001,-0.052 3.155,-0.166 6.697,-0.663 9.577,-2.69 9.419,-4.293 L 47.58,79.465 c 0.421,0.136 0.846,0.263 1.27,0.38 2.315,0.641 4.575,0.99 6.398,0.99 0.078,0 0.156,-10e-4 0.233,-0.002 1.414,-0.024 2.304,-0.268 2.863,-0.594 0.269,0.598 0.701,1.373 1.365,2.134 1.244,1.426 3.565,3.079 7.562,2.853 6.619,-0.38 8.099,3.639 8.158,3.806 0.088,0.262 0.334,0.438 0.61,0.438 0.006,0 0.012,0 0.018,0 0.282,-0.008 0.527,-0.199 0.602,-0.471 L 92.39,32.194 c 0.035,-0.124 0.031,-0.256 -0.01,-0.378 z M 59.773,16.838 c 0.07,-0.001 0.141,-0.002 0.214,-0.002 1.708,0 3.847,0.332 6.052,0.943 2.298,0.636 4.379,1.494 5.857,2.416 1.611,1.004 1.841,1.667 1.793,1.838 -0.186,0.673 -3.444,1.181 -8.749,-0.288 -5.305,-1.469 -7.836,-3.58 -7.651,-4.254 v 0 c 0,0 0,0 0,-0.001 0.048,-0.17 0.587,-0.62 2.484,-0.652 z M 43.334,7.163 c 5.505,0.048 8.496,1.433 8.49,2.132 -0.002,0.178 -0.405,0.752 -2.23,1.273 -1.676,0.479 -3.916,0.736 -6.296,0.71 C 37.793,11.23 34.802,9.845 34.807,9.147 34.813,8.448 37.823,7.101 43.334,7.163 Z m -8.542,3.726 c 1.472,0.926 4.251,1.64 8.495,1.677 0.095,10e-4 0.189,10e-4 0.283,10e-4 2.399,0 4.654,-0.268 6.377,-0.761 0.8,-0.228 1.405,-0.484 1.862,-0.749 l -0.193,22.099 -6.349,22.928 -2.996,-30.29 c 0,0 0,-0.001 0,-0.001 -0.072,-0.726 -0.717,-1.698 -3.375,-2.204 -1.206,-0.23 -2.653,-0.33 -4.211,-0.303 z M 32.32,24.71 c 2.372,-0.234 4.623,-0.184 6.334,0.142 1.865,0.356 2.318,0.892 2.336,1.068 0.018,0.177 -0.322,0.791 -2.081,1.505 -1.614,0.655 -3.811,1.145 -6.184,1.38 -5.477,0.541 -8.6,-0.515 -8.67,-1.21 v 0 C 23.986,26.901 26.841,25.252 32.32,24.71 Z M 21.996,89.515 c -3.726,-1.183 -5.938,0.119 -7.102,1.324 L 9.277,34.062 c 0.342,-0.663 2.058,-3.397 6.526,-1.979 3.786,1.202 6.016,-0.648 7.178,-2.266 l 5.581,56.421 c -0.283,0.759 -2.008,4.725 -6.566,3.277 z m 24.802,-4.879 c 0.069,0.695 -2.786,2.344 -8.265,2.886 -5.479,0.541 -8.601,-0.515 -8.67,-1.21 L 24.226,29.328 c 1.135,0.555 2.943,0.925 5.469,0.925 0.95,0 2.002,-0.052 3.156,-0.167 2.492,-0.246 4.815,-0.768 6.541,-1.468 0.771,-0.313 1.345,-0.631 1.77,-0.944 l 3.134,31.677 c 0.005,0.046 0.015,0.09 0.028,0.133 l -4.023,14.527 c -0.494,1.785 2.411,3.668 5.938,4.99 z M 55.46,79.549 C 53.713,79.578 51.492,79.244 49.195,78.608 48.42,78.393 47.711,78.164 47.054,77.929 47.045,77.926 47.037,77.922 47.028,77.92 43.206,76.545 41.384,74.928 41.543,74.355 L 56.824,19.171 c 1.182,1.275 3.683,2.683 7.772,3.815 2.575,0.713 4.666,1.009 6.279,1.009 0.949,0 1.73,-0.103 2.349,-0.283 L 57.943,78.896 c -0.047,0.171 -0.585,0.621 -2.483,0.653 z m 20.37,7.626 C 74.71,85.695 72.237,83.659 67.199,83.944 61.152,84.288 59.515,79.9 59.246,79.012 L 74.437,24.151 c 0.252,0.446 0.581,0.935 1.002,1.418 1.244,1.426 3.569,3.079 7.562,2.853 5.924,-0.341 7.735,2.852 8.089,3.639 z"
       id="path4-9"
       inkscape:connector-curvature="0" />
    <path
       d="m 28.406,27.165 c 0.104,1.052 1.782,1.25 3.033,1.25 0.557,0 1.03,-0.039 1.241,-0.06 0.984,-0.097 1.907,-0.298 2.598,-0.563 0.961,-0.369 1.419,-0.855 1.36,-1.441 -0.058,-0.587 -0.602,-0.973 -1.617,-1.147 -0.73,-0.126 -1.674,-0.14 -2.658,-0.043 -0.686,0.068 -4.107,0.484 -3.957,2.004 0,0 0,0 0,0 z m 4.085,-0.724 c 1.166,-0.116 2.033,-0.041 2.524,0.07 -0.459,0.205 -1.295,0.447 -2.461,0.563 -1.166,0.115 -2.034,0.041 -2.524,-0.07 0.459,-0.204 1.295,-0.447 2.461,-0.563 z"
       id="path6"
       inkscape:connector-curvature="0" />
    <path
       d="m 40.664,10.498 c 0.712,0.203 1.649,0.319 2.638,0.328 0.039,0 0.078,10e-4 0.117,10e-4 0.946,0 1.839,-0.1 2.526,-0.282 C 46.94,10.28 47.447,9.847 47.452,9.258 47.457,8.669 46.958,8.227 45.967,7.945 45.255,7.742 44.318,7.626 43.329,7.617 42.635,7.61 39.192,7.658 39.179,9.186 c -0.005,0.588 0.494,1.03 1.485,1.312 z m 2.654,-1.595 c 1.172,0.01 2.027,0.177 2.502,0.34 -0.478,0.154 -1.334,0.307 -2.507,0.296 -1.172,-0.01 -2.026,-0.178 -2.502,-0.34 0.478,-0.154 1.338,-0.302 2.507,-0.296 z"
       id="path8"
       inkscape:connector-curvature="0" />
  </g>
</svg>
